<svg width="50" height="48" viewBox="0 0 50 48" fill="none" xmlns="http://www.w3.org/2000/svg">
<path d="M49.5318 19.6426C49.4354 19.1395 49.1546 18.6843 48.7384 18.3565C48.3223 18.0286 47.7972 17.849 47.2548 17.8488H25.4576C25.1536 17.8488 24.8527 17.9051 24.5718 18.0147C24.291 18.1243 24.0359 18.285 23.8209 18.4876C23.606 18.6902 23.4355 18.9307 23.3193 19.1954C23.203 19.4601 23.1432 19.7438 23.1433 20.0303V28.4684C23.1432 28.7549 23.203 29.0386 23.3193 29.3033C23.4355 29.568 23.606 29.8085 23.8209 30.0111C24.0359 30.2136 24.291 30.3743 24.5718 30.4839C24.8527 30.5935 25.1536 30.6499 25.4576 30.6498H34.6278C33.9744 31.6894 33.0787 32.5752 32.0084 33.2403C30.0525 34.4092 27.7728 35.0052 25.4576 34.953C23.0564 34.9272 20.725 34.1886 18.7946 32.8423C16.8642 31.496 15.4331 29.6105 14.7047 27.4537L14.704 27.4501C13.8934 25.2106 13.8934 22.781 14.704 20.5415L14.7046 20.5379C15.4335 18.3816 16.8649 16.4966 18.7952 15.1507C20.7255 13.8049 23.0567 13.0666 25.4576 13.0408C26.7916 13.0119 28.1185 13.2317 29.3621 13.6876C30.6058 14.1435 31.7416 14.8264 32.7044 15.6972C33.1417 16.0911 33.7252 16.3081 34.33 16.3017C34.9348 16.2953 35.513 16.0661 35.9409 15.6632L42.5787 9.40644C42.7986 9.19943 42.972 8.95276 43.0885 8.68116C43.205 8.40957 43.2622 8.11862 43.2567 7.82571C43.2512 7.53281 43.1832 7.24395 43.0566 6.97639C42.93 6.70884 42.7475 6.46809 42.5199 6.26852C37.9009 2.18642 31.789 -0.0585849 25.4576 0.00116268C20.7362 -0.0120042 16.1048 1.21843 12.0857 3.55371C8.06662 5.88899 4.81963 9.23623 2.71091 13.218L2.7075 13.2218C0.919754 16.5633 -0.00777973 20.2546 4.91507e-05 23.9969C0.0056804 27.7377 0.932531 31.4262 2.70762 34.772L2.71102 34.7758C4.81974 38.7576 8.06671 42.1048 12.0858 44.4401C16.1049 46.7753 20.7362 48.0058 25.4576 47.9926C31.6723 48.1409 37.7121 46.0439 42.3398 42.1311L42.3415 42.1301L42.3433 42.1282L42.3438 42.1279L42.3439 42.1277C44.8522 39.8532 46.8282 37.1094 48.1449 34.0725C49.4616 31.0356 50.09 27.7726 49.9896 24.4933C49.9906 22.8668 49.8374 21.2434 49.5318 19.6426ZM25.4576 4.36402C29.7878 4.3243 34.0159 5.60426 37.5117 8.01323L34.1475 11.1832C31.5966 9.51886 28.5598 8.64335 25.4576 8.67789C22.6254 8.69162 19.8482 9.4165 17.4119 10.7779C14.9756 12.1393 12.9683 14.0881 11.5964 16.4237L9.1219 14.6158L7.76802 13.6262C9.63052 10.7856 12.2346 8.44265 15.3316 6.8211C18.4286 5.19955 21.9149 4.35358 25.4576 4.36402ZM5.73827 30.3303C4.25868 26.2232 4.25868 21.7706 5.73827 17.6635L9.86292 20.6779C9.33556 22.8619 9.33556 25.1298 9.86292 27.3138L5.73827 30.3303ZM25.4576 43.6298C21.9148 43.6402 18.4284 42.7941 15.3315 41.1725C12.2345 39.5509 9.63034 37.2079 7.76784 34.3672L8.6436 33.7269L11.5964 31.568C12.9676 33.9042 14.9748 35.8536 17.4112 37.2155C19.8476 38.5773 22.6251 39.3023 25.4576 39.3159C28.109 39.3453 30.7303 38.7841 33.1081 37.6781L37.0231 40.543C33.5799 42.6342 29.5528 43.709 25.4576 43.6298ZM40.5606 37.6074L40.137 37.2976L36.9494 34.9651C38.6208 33.263 39.7442 31.148 40.1887 28.8669C40.2508 28.552 40.2386 28.2281 40.1529 27.9181C40.0673 27.6082 39.9102 27.3199 39.693 27.0736C39.4757 26.8273 39.2036 26.6292 38.8959 26.4933C38.5882 26.3573 38.2526 26.2869 37.9128 26.2871H27.7719V22.2117H45.2423C45.3214 22.9658 45.361 23.7285 45.361 24.4933C45.4963 29.268 43.7908 33.9272 40.5605 37.6074H40.5606Z" fill="#F6B529"/>
</svg>
