<svg width="50" height="48" viewBox="0 0 50 48" fill="none" xmlns="http://www.w3.org/2000/svg">
<path d="M43.8027 26.4764C43.2507 26.4764 42.6736 26.3073 42.1216 26.1866C41.0038 25.9494 39.9054 25.6345 38.8348 25.2444C37.6709 24.8368 36.3914 24.8579 35.2427 25.3039C34.094 25.7498 33.1572 26.5891 32.6125 27.6601L32.0605 28.7472C29.6168 27.4383 27.3711 25.8127 25.3866 23.9158C23.4164 22.0051 21.728 19.843 20.3685 17.4902L21.4223 16.8138C22.5347 16.2894 23.4064 15.3874 23.8696 14.2814C24.3328 13.1754 24.3548 11.9436 23.9313 10.8229C23.533 9.79005 23.2061 8.7329 22.9528 7.65842C22.8274 7.12697 22.727 6.57137 22.6517 6.01577C22.3471 4.31422 21.4214 2.77332 20.0414 1.67057C18.6615 0.567811 16.9179 -0.024335 15.1247 0.000766497H7.59769C6.51639 -0.00900858 5.44559 0.205647 4.4582 0.63012C3.4708 1.05459 2.58999 1.67892 1.87573 2.46059C1.16146 3.24227 0.630518 4.16294 0.319033 5.15993C0.00754883 6.15693 -0.0771607 7.20683 0.0706717 8.23818C1.40732 18.3583 6.20778 27.7613 13.7138 34.9618C21.2198 42.1623 31.0035 46.7499 41.5195 48H42.4729C44.3231 48.0026 46.1094 47.349 47.4909 46.1641C48.2847 45.4806 48.9188 44.6426 49.3513 43.7057C49.7838 42.7688 50.0049 41.7541 49.9999 40.7288V33.4819C49.9692 31.8039 49.3345 30.1882 48.2043 28.9106C47.0741 27.633 45.5184 26.7727 43.8027 26.4764ZM45.0572 40.9704C45.0567 41.3134 44.9804 41.6524 44.8333 41.9647C44.6862 42.2771 44.4717 42.5558 44.2041 42.7822C43.9246 43.0165 43.5969 43.1914 43.2423 43.2955C42.8878 43.3995 42.5145 43.4304 42.1467 43.3861C32.7502 42.2261 24.0222 38.0873 17.3395 31.6225C10.6567 25.1577 6.39942 16.7349 5.23923 7.68257C5.1993 7.32872 5.23429 6.97075 5.3421 6.63029C5.44991 6.28983 5.6283 5.97395 5.86648 5.70173C6.1016 5.44406 6.39102 5.23754 6.71547 5.09592C7.03993 4.95431 7.39199 4.88084 7.74824 4.88041H15.2753C15.8587 4.86791 16.4285 5.05163 16.8864 5.39994C17.3443 5.74826 17.6618 6.23939 17.7843 6.78878C17.8846 7.44906 18.0101 8.10129 18.1606 8.74547C18.4505 10.0189 18.8362 11.2703 19.3148 12.4897L15.8021 14.0599C15.5018 14.1926 15.2317 14.3811 15.0072 14.6146C14.7827 14.848 14.6084 15.1219 14.4941 15.4204C14.3799 15.7189 14.328 16.0363 14.3415 16.3541C14.355 16.672 14.4336 16.9842 14.5727 17.2728C18.1837 24.7197 24.4011 30.7058 32.1358 34.1824C32.7466 34.424 33.4318 34.424 34.0426 34.1824C34.3555 34.0746 34.6431 33.9081 34.8886 33.6925C35.1341 33.4768 35.3327 33.2164 35.4728 32.9263L37.0284 29.5443C38.3254 29.9909 39.6492 30.362 40.9926 30.6555C41.6617 30.8005 42.3391 30.9213 43.0249 31.0179C43.5955 31.1357 44.1056 31.4414 44.4674 31.8823C44.8292 32.3232 45.02 32.8718 45.007 33.4335L45.0572 40.9704Z" fill="#F6B529"/>
</svg>
