<svg width="50" height="48" viewBox="0 0 50 48" fill="none" xmlns="http://www.w3.org/2000/svg">
<path d="M25 8.26893e-08C20.0555 8.26893e-08 15.222 1.40758 11.1108 4.04473C6.99953 6.68188 3.79521 10.4302 1.90302 14.8156C0.0108321 19.201 -0.484251 24.0266 0.480379 28.6822C1.44501 33.3377 3.82603 37.6141 7.32234 40.9706C10.8187 44.327 15.2732 46.6128 20.1228 47.5388C24.9723 48.4649 29.9989 47.9896 34.5671 46.1731C39.1352 44.3566 43.0397 41.2805 45.7867 37.3337C48.5338 33.3869 50 28.7467 50 24C50.0003 20.8482 49.3538 17.7272 48.0975 14.8153C46.8413 11.9034 44.9998 9.25751 42.6783 7.02885C40.3568 4.80019 37.6007 3.03238 34.5674 1.82636C31.5342 0.620338 28.2831 -0.000261549 25 8.26893e-08ZM32.9488 36.3659C32.8552 36.5899 32.7128 36.7921 32.5312 36.959C32.3496 37.1258 32.1329 37.2535 31.8957 37.3333C31.6584 37.4132 31.4062 37.4435 31.1558 37.4222C30.9054 37.4008 30.6626 37.3283 30.4438 37.2095L23.6571 32.147L19.3013 36.0048C19.2002 36.0765 19.082 36.1226 18.9575 36.1389C18.833 36.1553 18.7062 36.1413 18.5888 36.0982L19.4238 28.9259L19.4505 28.9463L19.4676 28.8047C19.4676 28.8047 31.6801 18.1307 32.1776 17.6759C32.6813 17.2223 32.5151 17.1239 32.5151 17.1239C32.5438 16.5706 31.6113 17.1239 31.6113 17.1239L15.43 27.1176L8.69129 24.9144C8.69129 24.9144 7.65628 24.558 7.55878 23.7744C7.45628 22.9968 8.72501 22.5744 8.72501 22.5744L35.5175 12.3564C35.5175 12.3564 37.72 11.4143 37.72 12.9744L32.9488 36.3659Z" fill="#F6B529"/>
</svg>
