<svg width="50" height="48" viewBox="0 0 50 48" fill="none" xmlns="http://www.w3.org/2000/svg">
<g clip-path="url(#clip0_233_53)">
<path fill-rule="evenodd" clip-rule="evenodd" d="M39.5833 48H10.4167C4.66458 48 0 43.522 0 38V10C0 4.478 4.66458 0 10.4167 0H39.5833C45.3375 0 50 4.478 50 10V38C50 43.522 45.3375 48 39.5833 48ZM37.9042 12.418C37.0312 11.646 33.5 9.186 25.6396 9.152C25.6396 9.152 16.3667 8.616 11.8479 12.596C9.33333 15.012 8.44792 18.544 8.35417 22.928C8.26042 27.312 8.13958 35.524 16.3854 37.75L16.3937 37.752L16.3896 41.15C16.3896 41.15 16.3375 42.526 17.2792 42.806C18.4208 43.146 19.0917 42.1 20.1812 40.974C20.7792 40.356 21.6042 39.446 22.2271 38.752C27.8667 39.206 32.2042 38.166 32.6979 38.012C33.8375 37.656 40.2792 36.864 41.3271 28.654C42.4083 20.186 40.8042 14.832 37.9042 12.418ZM38.8583 28.042C37.9729 34.898 32.7479 35.332 31.7854 35.628C31.375 35.754 27.5646 36.664 22.775 36.364C22.775 36.364 19.2042 40.498 18.0896 41.574C17.9167 41.742 17.7125 41.81 17.575 41.778C17.3833 41.732 17.3292 41.514 17.3333 41.196L17.3625 35.548C10.3875 33.688 10.7937 26.698 10.8729 23.038C10.9521 19.378 11.6687 16.378 13.7958 14.362C17.6187 11.038 25.4937 11.534 25.4937 11.534C32.1437 11.562 35.3312 13.486 36.0708 14.13C38.5229 16.146 39.7729 20.972 38.8583 28.042ZM26.3062 28.454C26.3062 28.454 26.9312 28.506 27.2667 28.106L27.9229 27.314C28.2396 26.922 29.0042 26.67 29.7521 27.07C30.7417 27.606 32.0229 28.45 32.9 29.236C33.3833 29.628 33.4958 30.204 33.1667 30.812L33.1625 30.824C32.825 31.4 32.3708 31.938 31.7979 32.438L31.7854 32.448C31.1417 32.964 30.4 33.264 29.6062 33.016L29.5917 32.996C28.1688 32.61 24.7542 30.938 22.5771 29.272C19.0167 26.574 16.4875 22.126 15.7854 19.742L15.7646 19.728C15.5062 18.964 15.8208 18.252 16.3562 17.636L16.3667 17.624C16.8896 17.074 17.45 16.64 18.0479 16.314L18.0604 16.312C18.6937 15.994 19.2937 16.102 19.7021 16.566C20.2396 17.1 21.25 18.382 21.9583 19.588C22.375 20.306 22.1146 21.04 21.7042 21.344L20.8792 21.974C20.4625 22.296 20.5167 22.896 20.5167 22.896C20.5167 22.896 21.7375 27.334 26.3062 28.454ZM33.4958 24.774C33.7417 24.772 33.9396 24.58 33.9375 24.344C33.9146 21.536 33.0187 19.282 31.275 17.648C29.5354 16.02 27.3437 15.186 24.7625 15.168C24.5187 15.168 24.3167 15.356 24.3146 15.592C24.3146 15.828 24.5104 16.02 24.7563 16.022C27.1 16.038 29.0854 16.79 30.6542 18.26C32.2229 19.728 33.0271 21.778 33.0479 24.352C33.05 24.586 33.2479 24.774 33.4917 24.774H33.4958ZM31.1562 23.898H31.1458C30.9 23.892 30.7062 23.698 30.7125 23.462C30.7458 22.002 30.3125 20.822 29.3854 19.85C28.4625 18.882 27.1958 18.352 25.5104 18.234C25.2667 18.216 25.0812 18.012 25.1 17.778C25.1187 17.542 25.3312 17.366 25.575 17.382C27.4708 17.516 28.9729 18.152 30.0417 19.274C31.1146 20.398 31.6396 21.814 31.6 23.48C31.5958 23.714 31.3979 23.898 31.1562 23.898ZM28.875 23.164C28.6396 23.164 28.4438 22.986 28.4312 22.758C28.3562 21.31 27.6458 20.6 26.1937 20.526C25.95 20.512 25.7604 20.312 25.775 20.076C25.7875 19.842 25.9958 19.66 26.2417 19.674C28.1562 19.772 29.2208 20.824 29.3187 22.716C29.3312 22.952 29.1437 23.152 28.8979 23.164H28.875Z" fill="#F6B529"/>
</g>
<defs>
<clipPath id="clip0_233_53">
<rect width="50" height="48" fill="white"/>
</clipPath>
</defs>
</svg>
