<svg width="50" height="48" viewBox="0 0 50 48" fill="none" xmlns="http://www.w3.org/2000/svg">
<path d="M50 10.92C49.9719 9.88457 49.8885 8.85121 49.75 7.824C49.5633 6.9243 49.2522 6.05258 48.825 5.232C48.3782 4.34185 47.7781 3.53046 47.05 2.832C46.3152 2.14129 45.4715 1.56622 44.55 1.128C43.6941 0.725866 42.7861 0.435296 41.85 0.264C40.7902 0.111598 39.7214 0.0234242 38.65 0H11.375C10.2964 0.0269674 9.22001 0.107073 8.15 0.24C7.21281 0.419204 6.30477 0.717848 5.45 1.128C4.52276 1.55697 3.67757 2.13305 2.95 2.832C2.23051 3.53739 1.63148 4.34735 1.175 5.232C0.756111 6.05367 0.453434 6.92538 0.275 7.824C0.116248 8.84144 0.0244002 9.86747 0 10.896C0 11.352 0 12 0 12.192V35.808C0 36.072 0 36.648 0 37.08C0.028091 38.1154 0.111534 39.1488 0.25 40.176C0.436671 41.0757 0.747758 41.9474 1.175 42.768C1.62184 43.6581 2.22193 44.4695 2.95 45.168C3.68478 45.8587 4.52849 46.4338 5.45 46.872C6.30591 47.2741 7.21394 47.5647 8.15 47.736C9.20984 47.8884 10.2786 47.9766 11.35 48H38.625C39.7036 47.973 40.78 47.8929 41.85 47.76C42.7872 47.5808 43.6952 47.2822 44.55 46.872C45.4772 46.443 46.3224 45.8669 47.05 45.168C47.7695 44.4626 48.3685 43.6527 48.825 42.768C49.2439 41.9463 49.5466 41.0746 49.725 40.176C49.8838 39.1586 49.9756 38.1325 50 37.104C50 36.648 50 36.072 50 35.808V12.192C50 12 50 11.352 50 10.92ZM25.575 40.8C22.5727 40.7858 19.6228 40.0427 17 38.64L7.5 41.04L10 32.112C8.38778 29.5115 7.52496 26.5461 7.5 23.52C7.50995 20.119 8.56801 16.7969 10.5409 13.9721C12.5138 11.1473 15.3133 8.94607 18.5868 7.64572C21.8603 6.34536 25.4615 6.00401 28.9367 6.66465C32.4119 7.32529 35.6058 8.95839 38.1161 11.3582C40.6264 13.7581 42.3408 16.8174 43.0434 20.1508C43.746 23.4843 43.4054 26.9428 42.0645 30.0907C40.7236 33.2387 38.4423 35.9354 35.508 37.8411C32.5737 39.7468 29.1176 40.7763 25.575 40.8ZM25.575 9.288C22.9245 9.31712 20.3294 10.02 18.0539 11.325C15.7784 12.63 13.9037 14.4906 12.6207 16.7172C11.3378 18.9439 10.6924 21.4572 10.7502 24.0013C10.808 26.5453 11.5671 29.0292 12.95 31.2L13.3 31.752L11.8 37.008L17.5 35.52L18.05 35.832C20.3239 37.1178 22.911 37.8049 25.55 37.824C29.5282 37.824 33.3436 36.3069 36.1566 33.6063C38.9696 30.9058 40.55 27.2431 40.55 23.424C40.55 19.6049 38.9696 15.9422 36.1566 13.2417C33.3436 10.5411 29.5282 9.024 25.55 9.024L25.575 9.288ZM34.325 29.736C33.9976 30.2603 33.5591 30.7128 33.038 31.0642C32.517 31.4156 31.9248 31.6581 31.3 31.776C30.3663 31.9398 29.4051 31.8822 28.5 31.608C27.6484 31.3524 26.8135 31.0478 26 30.696C22.9094 29.2072 20.2736 26.9746 18.35 24.216C17.3047 22.9379 16.6705 21.3949 16.525 19.776C16.5101 19.1035 16.6426 18.4355 16.914 17.8153C17.1853 17.1951 17.5894 16.6366 18.1 16.176C18.2504 16.0123 18.4349 15.8807 18.6416 15.7898C18.8483 15.6988 19.0726 15.6505 19.3 15.648H20C20.275 15.648 20.65 15.648 21 16.392C21.35 17.136 22.275 19.368 22.4 19.584C22.4614 19.6991 22.4935 19.8266 22.4935 19.956C22.4935 20.0854 22.4614 20.2129 22.4 20.328C22.2895 20.5888 22.1377 20.8317 21.95 21.048C21.725 21.312 21.475 21.624 21.275 21.816C21.075 22.008 20.825 22.248 21.075 22.68C21.7552 23.7821 22.5972 24.7843 23.575 25.656C24.6398 26.5593 25.8573 27.2816 27.175 27.792C27.625 28.008 27.9 27.984 28.15 27.792C28.4 27.6 29.275 26.544 29.575 26.112C29.875 25.68 30.175 25.752 30.575 25.896C30.975 26.04 33.2 27.072 33.65 27.288C34.1 27.504 34.375 27.6 34.5 27.792C34.6084 28.4201 34.5482 29.0644 34.325 29.664V29.736Z" fill="#F6B529"/>
</svg>
