<svg width="47" height="29" viewBox="0 0 47 29" fill="none" xmlns="http://www.w3.org/2000/svg">
<path d="M42.43 1.47048H30.5252V4.70727H42.4769L42.43 1.47048ZM39.9175 23.7378C39.0144 24.3228 37.9479 24.6196 36.865 24.5871C36.1482 24.6602 35.4237 24.5878 34.7368 24.3745C34.05 24.1612 33.4155 23.8116 32.8732 23.3475C31.8706 22.2362 31.3487 20.7876 31.4174 19.3073H46.9618C47.0738 17.7659 46.9391 16.2168 46.5626 14.7161C46.1984 13.2883 45.561 11.9408 44.6841 10.7447C43.8015 9.5845 42.6616 8.63484 41.3498 7.96702C39.8904 7.26351 38.2807 6.90943 36.6537 6.934C35.1235 6.92304 33.6065 7.21185 32.1923 7.78337C30.8973 8.31708 29.724 9.09744 28.7406 10.079C27.76 11.0801 27.0007 12.2679 26.5099 13.5683C25.9833 14.9721 25.7207 16.4576 25.7351 17.9529C25.7109 19.4693 25.9654 20.9778 26.4864 22.4063C26.929 23.7 27.6315 24.8941 28.5528 25.9186C29.5059 26.9244 30.6773 27.7088 31.981 28.2142C33.4347 28.7557 34.9808 29.0206 36.5363 28.9947C38.7186 29.0612 40.8733 28.5027 42.7352 27.3878C44.6158 26.0813 45.9698 24.1729 46.5626 21.9931H41.3733C41.0955 22.7142 40.5843 23.3269 39.9175 23.7378ZM31.8636 14.2799C32.0463 13.7076 32.3497 13.179 32.7541 12.7283C33.1585 12.2775 33.655 11.9146 34.2117 11.6629C34.9489 11.3385 35.7516 11.1816 36.5597 11.2038C37.1435 11.1551 37.7312 11.2304 38.2824 11.4245C38.8336 11.6187 39.3353 11.9271 39.7531 12.3286C40.551 13.2835 41.063 14.4355 41.2324 15.6573H31.4879C31.5259 15.1908 31.6124 14.7293 31.7462 14.2799H31.8636ZM19.4422 13.178C20.6373 12.6915 21.6757 11.8984 22.4477 10.8824C23.1574 9.8035 23.5099 8.53709 23.4574 7.25538C23.5034 6.08655 23.2703 4.92331 22.7765 3.8579C22.3616 2.93488 21.6956 2.14085 20.851 1.5623C19.9556 0.960793 18.9388 0.55376 17.869 0.368591C16.6029 0.108989 15.3116 -0.0141774 14.0181 0.00129553H0V28.8799H14.3233C15.6305 28.8808 16.9324 28.7188 18.1977 28.3978C19.397 28.0945 20.5331 27.5896 21.5555 26.9057C22.5457 26.2347 23.3521 25.336 23.9035 24.2887C24.5138 23.1175 24.8126 21.8148 24.7723 20.501C24.8168 18.8728 24.3497 17.2704 23.4339 15.9098C22.4491 14.5414 20.9884 13.5704 19.3248 13.178H19.4422ZM6.50421 4.93683H12.5858C13.1445 4.93615 13.7022 4.98223 14.2529 5.07456C14.76 5.14803 15.2469 5.31973 15.6852 5.5796C16.1087 5.81378 16.4518 6.16522 16.6714 6.58966C16.9434 7.09863 17.073 7.66881 17.0471 8.24249C17.0909 8.73659 17.0136 9.23377 16.8217 9.69285C16.6298 10.1519 16.3287 10.5597 15.9435 10.8824C15.1032 11.4472 14.0976 11.7292 13.0789 11.6859H6.50421V4.93683ZM17.869 22.0161C17.6277 22.4839 17.2629 22.8802 16.8123 23.1639C16.3434 23.449 15.8267 23.651 15.2861 23.7607C14.6851 23.8922 14.0703 23.9539 13.4545 23.9444H6.41028V16.0246H13.4545C14.6634 15.9728 15.8572 16.3028 16.8593 16.9658C17.312 17.363 17.6627 17.8588 17.883 18.4132C18.1033 18.9675 18.187 19.5648 18.1272 20.1566C18.1907 20.7877 18.1023 21.4244 17.869 22.0161Z" fill="#F6B529"/>
</svg>
